<svg width="26" height="26" viewBox="0 0 26 26" fill="none" xmlns="http://www.w3.org/2000/svg">
<g clip-path="url(#clip0_0_68)">
<path d="M22.6485 3.65634H18.7271L19.101 1.52353H20.5156C20.9363 1.52353 21.2774 1.18248 21.2774 0.76181C21.2774 0.341138 20.9363 9.15527e-05 20.5156 9.15527e-05H18.4613C18.0913 9.15527e-05 17.7749 0.265881 17.711 0.630287L17.1805 3.65634H3.35158C2.93091 3.65634 2.58986 3.99739 2.58986 4.41806V8.07431C2.58986 8.49498 2.93091 8.83603 3.35158 8.83603H4.6464C4.85166 10.52 4.99613 11.7044 5.15934 13.0422C8.44291 13.7926 8.99815 15.8438 13 15.8438C16.9943 15.8438 17.5649 13.7918 20.8407 13.0416C20.9493 12.1513 21.245 9.72704 21.3536 8.83603H22.6485C23.0691 8.83603 23.4102 8.49498 23.4102 8.07431V4.41806C23.4102 3.99739 23.0691 3.65634 22.6485 3.65634Z" fill="#F5BA3C"/>
<path d="M13 17.3674C8.84614 17.3674 7.77948 15.4403 5.35823 14.6725L6.28672 22.2838C6.28672 22.2838 6.28672 22.2839 6.28672 22.2839L6.65793 25.3307C6.70454 25.7128 7.02904 26.0002 7.41406 26.0002H18.5859C18.971 26.0002 19.2955 25.7128 19.3421 25.3307L19.4666 24.3086C19.4666 24.3086 20.6419 14.6716 20.6419 14.6715C18.2242 15.4388 17.1537 17.3674 13 17.3674ZM17.9115 24.4767H8.08859L7.90298 22.9533H18.0972C18.0283 23.5182 17.9744 23.9599 17.9115 24.4767Z" fill="#F5BA3C"/>
</g>
<defs>
<clipPath id="clip0_0_68">
<rect width="26" height="26" fill="white"/>
</clipPath>
</defs>
</svg>
