<svg width="21" height="27" viewBox="0 0 21 27" fill="none" xmlns="http://www.w3.org/2000/svg">
<path d="M11.0714 8.25198C11.5354 7.477 12.2698 6.36785 13.1974 5.30358H13.1984C13.984 4.40032 15.5223 3.24101 15.5223 3.24101C15.7536 3.06628 15.7288 2.82291 15.4658 2.70043L13.6065 1.83148C13.3436 1.70848 12.9862 1.79822 12.812 2.02998C12.812 2.02998 11.4367 4.0028 9.8181 8.20236C4.81337 5.93866 0.0562363 9.10932 0.0562363 14.6229C0.0562363 20.3819 4.48711 29.13 10.4791 26.4893C16.7899 29.2202 20.9051 20.3824 20.9051 14.6229C20.9051 9.0618 16.6289 5.8014 11.0714 8.25198Z" fill="#F8644A"/>
<path d="M9.95056 6.38684C10.2399 6.36255 10.4954 6.10651 10.5186 5.81774C10.5186 5.81774 10.7044 3.56566 9.13491 1.99459C7.56064 0.422983 5.31273 0.610393 5.31273 0.610393C5.02343 0.634677 4.76791 0.890716 4.74416 1.17948C4.74416 1.17948 4.55516 3.43263 6.12679 5.00423C7.69737 6.57425 9.95056 6.38684 9.95056 6.38684Z" fill="#F8644A"/>
</svg>
