<svg width="24" height="26" viewBox="0 0 24 26" fill="none" xmlns="http://www.w3.org/2000/svg">
<path d="M4.00657 12.8813C4.00657 12.1539 4.22226 11.4544 4.62313 10.8622C4.49142 10.4373 4.42336 9.99214 4.42336 9.55095C4.42336 7.64839 5.62334 5.99093 7.36298 5.36867C7.51812 3.95014 8.42861 2.72946 9.71168 2.14518C9.05224 1.07863 8.01137 0.45328 7.05183 0.608736C6.35836 0.721352 5.78378 1.19213 5.44611 1.90272C4.83838 1.62361 4.20634 1.57724 3.6521 1.772C3.05233 1.9831 2.58648 2.43445 2.30493 3.07703C1.93146 3.92806 1.93102 5.02331 2.29212 6.06469C1.80549 6.39856 1.44174 6.88922 1.22915 7.50442C0.871585 8.5374 0.99092 9.78369 1.55622 10.9253C1.61809 11.0499 1.68572 11.1735 1.75953 11.295C1.22871 11.6399 0.831364 12.1513 0.618329 12.7753C0.27977 13.7655 0.429602 14.9323 1.02937 15.9754C1.30473 16.4546 1.66936 16.8887 2.09411 17.2455C1.95223 17.8391 2.05963 18.4914 2.40526 19.0819C2.88835 19.9055 3.75862 20.4642 4.68855 20.5582C5.93405 22.8971 7.43945 24.0904 9.59235 25.1243C7.03459 22.1031 5.61229 19.6008 5.53229 15.8275C4.59087 15.1557 4.00657 14.0521 4.00657 12.8813Z" fill="#28B446"/>
<path d="M23.6864 9.43129C23.7217 7.71157 22.7109 6.16452 21.1445 5.49589C20.916 4.02833 19.7324 2.88141 18.2615 2.68709C18.2482 2.54091 18.2204 2.39517 18.1784 2.2512C17.9189 1.36616 17.138 0.699735 16.2359 0.592859C15.6458 0.522639 15.088 0.670587 14.627 0.994305C14.216 0.7227 13.7373 0.576077 13.2467 0.576077C11.9831 0.576077 10.933 1.50881 10.75 2.72154C9.30513 3.01302 8.22183 4.2995 8.22183 5.80459C8.22183 5.88541 8.22537 5.96623 8.23156 6.04837C6.55644 6.34957 5.30563 7.80387 5.30563 9.55142C5.30563 10.0566 5.4148 10.5575 5.6243 11.0181C5.15359 11.5211 4.88928 12.1831 4.88928 12.8818C4.88928 13.9258 5.48949 14.8727 6.41191 15.3284C6.37125 19.331 7.83024 21.7608 10.6766 25.0351L10.837 25.2175L10.8662 25.2506C11.2976 25.7342 11.9186 26.0001 12.6156 26.0001C12.7362 26.0001 12.8551 25.9899 12.9723 25.9749L12.8211 25.6817C11.8713 23.4245 11.2883 21.4203 10.963 19.6388C9.73739 19.2616 9.20745 18.283 9.18403 18.2379C9.07 18.0224 9.15353 17.7548 9.36922 17.6413C9.58358 17.5278 9.8501 17.6099 9.96545 17.8241C9.98181 17.8546 10.239 18.3068 10.8017 18.6151C10.6479 17.4593 10.6032 16.4038 10.6479 15.4525C10.6426 15.4044 10.6448 15.3571 10.6558 15.3086C10.7327 13.9488 10.9811 12.7979 11.3091 11.8333C9.82004 10.9461 9.63618 9.29438 9.76435 8.49282C9.8028 8.25213 10.03 8.08563 10.2704 8.12626C10.5113 8.16468 10.6753 8.39036 10.6377 8.63061C10.6267 8.70171 10.4282 10.1666 11.6339 10.9907C11.694 10.8516 11.7546 10.7134 11.8174 10.584C12.9798 8.18677 14.6412 6.99391 15.2843 6.60041C15.2829 5.71582 15.8633 4.94738 15.8907 4.9116C16.0387 4.71773 16.3172 4.68151 16.5099 4.82902C16.7035 4.97697 16.7406 5.25387 16.593 5.44731C16.4944 5.57803 16.3008 5.90351 16.2142 6.26168C17.2321 6.14641 18.2257 6.72054 18.2761 6.75057C18.4869 6.87467 18.5563 7.14539 18.4325 7.35517C18.3499 7.49472 18.2022 7.57245 18.0515 7.57245C17.9751 7.57245 17.8982 7.55302 17.8279 7.51151C17.5198 7.33176 16.5819 6.93473 15.9393 7.24211C15.8275 7.29908 15.0752 7.70362 14.2191 8.59616C15.9724 8.46853 17.1919 8.98877 17.2533 9.01527C17.4765 9.11376 17.5782 9.37432 17.4805 9.59735C17.4076 9.76252 17.2454 9.86144 17.0752 9.86144C17.0164 9.86144 16.9563 9.84996 16.8988 9.82435C16.8657 9.81021 15.3705 9.19104 13.3886 9.60309C12.9917 10.1609 12.6098 10.8295 12.2934 11.6262C12.2925 11.6845 12.2806 11.7437 12.2549 11.8002C12.2381 11.8378 12.2156 11.8704 12.1908 11.9005C11.9394 12.589 11.7365 13.3632 11.6145 14.2376C12.6138 13.6114 13.8744 13.584 13.9464 13.5831H13.9517C14.193 13.5831 14.3897 13.7765 14.3932 14.0185C14.3968 14.2623 14.2014 14.4624 13.9579 14.4664C13.9393 14.4668 12.1206 14.5092 11.5018 15.5634C11.4585 16.6405 11.5332 17.8431 11.763 19.1813C11.7652 19.1914 11.7665 19.2016 11.7679 19.2122C12.0772 20.9959 12.6589 23.0146 13.6229 25.3063L13.8332 25.7117C14.1577 25.5483 14.437 25.3222 14.6363 25.044C14.9691 24.5794 15.0478 24.0158 14.8569 23.4572C14.0578 21.1143 14.0825 19.3266 14.9302 18.143C16.029 16.6083 18.3176 16.3791 19.5834 16.3791C20.2354 16.3791 20.6831 16.4391 20.6875 16.44L21.1419 16.5019L21.1874 16.0461C21.1936 15.986 21.324 14.5631 20.493 13.5963C20.4449 13.5403 20.394 13.4873 20.3419 13.4365C20.5766 13.3839 20.8086 13.3093 21.0367 13.213C22.6119 12.5492 23.6523 11.0645 23.6864 9.43129Z" fill="#28B446"/>
</svg>
