<svg width="380" height="189" viewBox="0 0 380 189" fill="none" xmlns="http://www.w3.org/2000/svg">
<path d="M0 10C0 4.47715 4.47715 0 10 0H370C375.523 0 380 4.47715 380 10V179C380 184.523 375.523 189 370 189H10C4.47716 189 0 184.523 0 179V10Z" fill="#6CC51D"/>
<path fill-rule="evenodd" clip-rule="evenodd" d="M335 30.0366C332.043 39.9924 322.865 47.25 312 47.25C298.745 47.25 288 36.4477 288 23.1223C288 12.2 295.219 2.97276 305.122 0H10C4.47715 0 0 4.47715 0 10V179C0 184.523 4.47716 189 10 189H361.953C359.448 184.982 358 180.23 358 175.138C358 162.07 367.54 151.242 380 149.307V104.046C375.588 107.513 370.034 109.58 364 109.58C349.641 109.58 338 97.8774 338 83.4416C338 71.3202 346.207 61.1259 357.34 58.1687C344.783 56.8407 335 46.2171 335 33.3086V30.0366ZM335 16.208C332.694 8.44261 326.602 2.31873 318.878 0H370C370.011 0 370.022 1.73338e-05 370.033 5.19753e-05H335V16.208ZM380 58.3086H371.166C374.416 59.2433 377.405 60.798 380 62.8372V58.3086Z" fill="url(#paint0_linear_146_984)"/>
<path d="M354 145L361 152L354 159L347 152L354 145Z" fill="#F7CA57"/>
<path d="M328 50L338 60L328 70L318 60L328 50Z" fill="#EC6F5A"/>
<circle cx="64" cy="33" r="17" fill="#FFC107"/>
<circle opacity="0.8" cx="38" cy="33" r="17" fill="#F14336"/>
<defs>
<linearGradient id="paint0_linear_146_984" x1="351.5" y1="-6.06759e-06" x2="87" y2="189" gradientUnits="userSpaceOnUse">
<stop stop-color="#AEDC81"/>
<stop offset="1" stop-color="#6CC51D"/>
</linearGradient>
</defs>
</svg>
