<svg width="23" height="16" viewBox="0 0 23 16" fill="none" xmlns="http://www.w3.org/2000/svg">
<path d="M0.385274 7.08664L0.386459 7.08542L7.24993 0.375737C7.76411 -0.126909 8.59577 -0.125038 9.10759 0.380123C9.61934 0.885221 9.61737 1.70219 9.10319 2.2049L4.49505 6.70968L21.6865 6.70968C22.4119 6.70968 23 7.28736 23 8C23 8.71265 22.4119 9.29032 21.6865 9.29032L4.49512 9.29032L9.10312 13.7951C9.6173 14.2978 9.61927 15.1148 9.10752 15.6199C8.5957 16.1251 7.76397 16.1268 7.24986 15.6243L0.386392 8.91458L0.385209 8.91335C-0.129235 8.40897 -0.127595 7.58935 0.385274 7.08664Z" fill="black"/>
<path d="M0.385274 7.08664L0.386459 7.08542L7.24993 0.375737C7.76411 -0.126909 8.59577 -0.125038 9.10759 0.380123C9.61934 0.885221 9.61737 1.70219 9.10319 2.2049L4.49505 6.70968L21.6865 6.70968C22.4119 6.70968 23 7.28736 23 8C23 8.71265 22.4119 9.29032 21.6865 9.29032L4.49512 9.29032L9.10312 13.7951C9.6173 14.2978 9.61927 15.1148 9.10752 15.6199C8.5957 16.1251 7.76397 16.1268 7.24986 15.6243L0.386392 8.91458L0.385209 8.91335C-0.129235 8.40897 -0.127595 7.58935 0.385274 7.08664Z" fill="black"/>
</svg>
