<svg width="21" height="25" viewBox="0 0 21 25" fill="none" xmlns="http://www.w3.org/2000/svg">
<path d="M20.9946 21.6104L19.4923 5.4908C19.4601 5.13292 19.1436 4.86196 18.7734 4.86196H15.6829C15.64 2.1728 13.3329 0 10.5 0C7.66709 0 5.35999 2.1728 5.31707 4.86196H2.22662C1.85105 4.86196 1.53986 5.13292 1.50766 5.4908L0.00536548 21.6104C0.00536548 21.6309 0 21.6513 0 21.6718C0 23.5072 1.7652 25 3.93817 25H17.0618C19.2348 25 21 23.5072 21 21.6718C21 21.6513 21 21.6309 20.9946 21.6104ZM10.5 1.38037C12.5335 1.38037 14.1914 2.93456 14.2343 4.86196H6.76571C6.80864 2.93456 8.46653 1.38037 10.5 1.38037ZM17.0618 23.6196H3.93817C2.57537 23.6196 1.47011 22.7607 1.44865 21.7025L2.88656 6.24744H5.3117V8.34356C5.3117 8.72699 5.63362 9.03374 6.03602 9.03374C6.43843 9.03374 6.76035 8.72699 6.76035 8.34356V6.24744H14.2343V8.34356C14.2343 8.72699 14.5562 9.03374 14.9586 9.03374C15.361 9.03374 15.6829 8.72699 15.6829 8.34356V6.24744H18.1081L19.5514 21.7025C19.5299 22.7607 18.4193 23.6196 17.0618 23.6196Z" fill="white"/>
</svg>
