<svg width="18" height="16" viewBox="0 0 18 16" fill="none" xmlns="http://www.w3.org/2000/svg">
<path d="M16.5721 1.56581C15.6403 0.556101 14.3617 0 12.9717 0C11.9327 0 10.9811 0.328199 10.1434 0.975406C9.7207 1.3021 9.33769 1.70178 9 2.16828C8.66245 1.70192 8.2793 1.3021 7.85646 0.975406C7.01889 0.328199 6.06734 0 5.02831 0C3.63826 0 2.35959 0.556101 1.42781 1.56581C0.507156 2.56372 0 3.92701 0 5.40473C0 6.92567 0.567307 8.31791 1.78528 9.7863C2.87485 11.0998 4.44081 12.4332 6.25424 13.9772C6.87346 14.5044 7.57535 15.1021 8.30415 15.7388C8.49669 15.9072 8.74374 16 9 16C9.25612 16 9.50331 15.9072 9.69557 15.739C10.4244 15.1023 11.1267 14.5043 11.7462 13.9767C13.5593 12.433 15.1253 11.0998 16.2149 9.78616C17.4328 8.31791 18 6.92567 18 5.40459C18 3.92701 17.4928 2.56372 16.5721 1.56581Z" fill="#FE585A"/>
</svg>
