<svg width="25" height="25" viewBox="0 0 25 25" fill="none" xmlns="http://www.w3.org/2000/svg">
<path d="M24.1382 6.1392e-08C24.0043 -5.04427e-05 23.8722 0.0310601 23.7525 0.0909075L17.2207 3.35767L9.83481 0.0745441C9.82274 0.0693927 9.80895 0.0684836 9.79602 0.0633322C9.76279 0.0509082 9.7288 0.0405549 9.6943 0.0323227C9.66001 0.0230804 9.62516 0.0158584 9.59001 0.0107574C9.52002 0.00499997 9.44966 0.00499997 9.37971 0.0107574C9.34456 0.0158584 9.30972 0.0230804 9.27542 0.0323227C9.24093 0.0405549 9.20694 0.0509082 9.17371 0.0633322C9.16078 0.0684836 9.14699 0.0693422 9.13492 0.0745441L1.37749 3.52231C1.06608 3.66059 0.865428 3.96937 0.865479 4.31007V23.2727C0.86563 23.5643 1.01315 23.8361 1.25764 23.995C1.50218 24.1542 1.81061 24.1788 2.07732 24.0605L9.48481 20.7679L16.8923 24.0605C16.9052 24.0657 16.919 24.0605 16.9319 24.0683C17.1406 24.1616 17.3802 24.1563 17.5844 24.0536C17.5982 24.0476 17.6137 24.0536 17.6275 24.0442L24.523 20.5964C24.8152 20.4504 24.9998 20.1516 24.9996 19.8249V0.862358C24.9999 0.386306 24.6142 0.000202078 24.1382 6.1392e-08ZM8.62291 19.2647L2.58934 21.9462V4.87036L8.62291 2.18885V19.2647ZM16.3803 21.9462L10.3468 19.2647V2.18885L16.3803 4.87031V21.9462ZM23.2758 19.2923L18.1042 21.8781V4.84274L23.2758 2.25693V19.2923Z" fill="#868889"/>
</svg>
