<svg width="24" height="24" viewBox="0 0 24 24" fill="none" xmlns="http://www.w3.org/2000/svg">
<path d="M12 0C5.38312 0 0 5.38312 0 12C0 18.6169 5.38312 24 12 24C18.6169 24 24 18.6169 24 12C24 5.38312 18.6169 0 12 0ZM11.2969 5.89014C10.2272 5.84418 9.16827 5.69385 8.15717 5.4494C8.31866 5.06671 8.4939 4.69922 8.68286 4.35095C9.45813 2.92236 10.4099 1.91986 11.2969 1.55676V5.89014ZM11.2969 7.29749V11.2969H6.90509C6.96698 9.7359 7.23303 8.18628 7.67303 6.77673C8.83905 7.07043 10.0631 7.24823 11.2969 7.29749ZM11.2969 12.7031V16.7025C10.0631 16.7518 8.83905 16.9296 7.67303 17.2233C7.23303 15.8137 6.96698 14.2641 6.90509 12.7031H11.2969ZM11.2969 18.1099V22.4432C10.4099 22.0801 9.45813 21.0776 8.68286 19.649C8.4939 19.3008 8.31866 18.9333 8.15717 18.5506C9.16827 18.3062 10.227 18.1558 11.2969 18.1099ZM12.7031 18.1099C13.7728 18.1558 14.8317 18.3062 15.8428 18.5506C15.6813 18.9333 15.5061 19.3008 15.3171 19.649C14.5419 21.0776 13.5901 22.0801 12.7031 22.4432V18.1099ZM12.7031 16.7025V12.7031H17.0949C17.033 14.2641 16.767 15.8137 16.327 17.2233C15.1609 16.9296 13.9369 16.7518 12.7031 16.7025ZM12.7031 11.2969V7.29749C13.9369 7.24823 15.1609 7.07043 16.327 6.77673C16.767 8.18628 17.033 9.7359 17.0949 11.2969H12.7031ZM12.7031 5.89014V1.55676C13.5901 1.91986 14.5419 2.92236 15.3171 4.35095C15.5061 4.69922 15.6813 5.06671 15.8428 5.4494C14.8317 5.69385 13.7728 5.84418 12.7031 5.89014ZM16.5531 3.68024C16.201 3.03131 15.8185 2.45929 15.4153 1.97131C16.8212 2.45142 18.0947 3.21954 19.1656 4.20465C18.5548 4.53186 17.8965 4.81604 17.204 5.05353C17.0076 4.57635 16.7904 4.11731 16.5531 3.68024ZM7.4469 3.68024C7.20959 4.11731 6.99243 4.57635 6.79596 5.05353C6.10345 4.81604 5.44519 4.53168 4.83435 4.20465C5.90533 3.21954 7.17883 2.45142 8.58472 1.97131C8.18152 2.45929 7.79919 3.03113 7.4469 3.68024ZM6.32025 6.37518C5.84033 7.91052 5.55817 9.58429 5.49738 11.2969H1.43024C1.58075 9.01154 2.45837 6.92157 3.83459 5.25787C4.59833 5.69586 5.43475 6.0705 6.32025 6.37518ZM5.49738 12.7031C5.55817 14.4159 5.84033 16.0895 6.32025 17.6248C5.43475 17.9295 4.59833 18.3041 3.83459 18.7421C2.45837 17.0784 1.58075 14.9885 1.43024 12.7031H5.49738ZM6.79596 18.9465C6.99243 19.4236 7.20959 19.8827 7.4469 20.3198C7.79919 20.9687 8.18152 21.5407 8.58472 22.0287C7.17883 21.5486 5.90533 20.7805 4.83453 19.7953C5.44501 19.4683 6.10345 19.184 6.79596 18.9465ZM16.5531 20.3198C16.7904 19.8827 17.0076 19.4236 17.204 18.9465C17.8965 19.184 18.5548 19.4683 19.1656 19.7953C18.0947 20.7805 16.8212 21.5486 15.4153 22.0287C15.8185 21.5407 16.2008 20.9689 16.5531 20.3198ZM17.6797 17.6248C18.1597 16.0895 18.4418 14.4157 18.5026 12.7031H22.5698C22.4193 14.9885 21.5416 17.0784 20.1654 18.7421C19.4017 18.3041 18.5652 17.9295 17.6797 17.6248ZM18.5026 11.2969C18.4418 9.58411 18.1597 7.91052 17.6797 6.37518C18.5652 6.0705 19.4017 5.69586 20.1654 5.25787C21.5416 6.92157 22.4193 9.01154 22.5698 11.2969H18.5026Z" fill="#868889"/>
</svg>
