<svg width="27" height="18" viewBox="0 0 27 18" fill="none" xmlns="http://www.w3.org/2000/svg">
<path d="M23.793 0.665527H3.20804C1.7151 0.665527 0.499512 1.88112 0.499512 3.3741V15.2917C0.499512 16.7846 1.7151 18.0002 3.20804 18.0002H23.7929C25.2859 18.0002 26.5014 16.7846 26.5014 15.2917V3.3741C26.5015 1.88112 25.2859 0.665527 23.793 0.665527ZM25.4181 15.2916C25.4181 16.1876 24.689 16.9168 23.793 16.9168H3.20804C2.31203 16.9168 1.58291 16.1876 1.58291 15.2916V3.3741C1.58291 2.4781 2.31203 1.74898 3.20804 1.74898H23.7929C24.6889 1.74898 25.4181 2.4781 25.4181 3.3741V15.2916H25.4181Z" fill="#868889"/>
<path d="M25.9604 3.91602H1.04185C0.742824 3.91602 0.500122 4.15872 0.500122 4.45774V7.70799C0.500122 8.00701 0.742824 8.24972 1.04185 8.24972H25.9604C26.2595 8.24972 26.5022 8.00701 26.5022 7.70799V4.45774C26.5021 4.15872 26.2594 3.91602 25.9604 3.91602ZM25.4187 7.16626H1.58352V4.99942H25.4187V7.16626H25.4187Z" fill="#868889"/>
<path d="M10.7926 11.5H4.29209C3.99307 11.5 3.75037 11.7427 3.75037 12.0417C3.75037 12.3407 3.99307 12.5834 4.29209 12.5834H10.7926C11.0916 12.5834 11.3343 12.3407 11.3343 12.0417C11.3343 11.7427 11.0916 11.5 10.7926 11.5Z" fill="#868889"/>
<path d="M10.7926 13.667H4.29209C3.99307 13.667 3.75037 13.9097 3.75037 14.2087C3.75037 14.5077 3.99307 14.7504 4.29209 14.7504H10.7926C11.0916 14.7504 11.3343 14.5077 11.3343 14.2087C11.3343 13.9097 11.0916 13.667 10.7926 13.667Z" fill="#868889"/>
<path d="M21.6265 10.4165H20.5431C19.6471 10.4165 18.918 11.1456 18.918 12.0416V13.125C18.918 14.021 19.6471 14.7502 20.5431 14.7502H21.6265C22.5225 14.7502 23.2516 14.021 23.2516 13.125V12.0416C23.2516 11.1457 22.5225 10.4165 21.6265 10.4165ZM22.1682 13.1251C22.1682 13.4241 21.9255 13.6668 21.6265 13.6668H20.5431C20.2441 13.6668 20.0014 13.4241 20.0014 13.1251V12.0417C20.0014 11.7427 20.2441 11.5 20.5431 11.5H21.6265C21.9255 11.5 22.1682 11.7427 22.1682 12.0417V13.1251Z" fill="#868889"/>
</svg>
