<svg width="19" height="17" viewBox="0 0 19 17" fill="none" xmlns="http://www.w3.org/2000/svg">
<path d="M17.8599 1.54993H6.78618C6.48174 0.650108 5.62647 0 4.62089 0C3.61531 0 2.76004 0.650108 2.45559 1.54993H0.727065C0.325531 1.54993 0 1.87387 0 2.27345C0 2.67302 0.325531 2.99697 0.727065 2.99697H2.45564C2.76008 3.89679 3.61536 4.5469 4.62093 4.5469C5.62651 4.5469 6.48178 3.89679 6.78623 2.99697H17.86C18.2615 2.99697 18.587 2.67302 18.587 2.27345C18.587 1.87387 18.2615 1.54993 17.8599 1.54993ZM4.62089 3.09985C4.16298 3.09985 3.79043 2.72912 3.79043 2.27345C3.79043 1.81777 4.16298 1.44704 4.62089 1.44704C5.07879 1.44704 5.45134 1.81777 5.45134 2.27345C5.45134 2.72912 5.07879 3.09985 4.62089 3.09985Z" fill="#868889"/>
<path d="M17.8599 7.74966H16.1313C15.8269 6.84985 14.9716 6.19974 13.966 6.19974C12.9605 6.19974 12.1052 6.84985 11.8008 7.74966H0.727065C0.325531 7.74966 0 8.07361 0 8.47319C0 8.87276 0.325531 9.19671 0.727065 9.19671H11.8008C12.1052 10.0965 12.9606 10.7466 13.9661 10.7466C14.9716 10.7466 15.8269 10.0965 16.1314 9.19671H17.86C18.2615 9.19671 18.587 8.87276 18.587 8.47319C18.587 8.07361 18.2615 7.74966 17.8599 7.74966ZM13.9661 9.29959C13.5082 9.29959 13.1356 8.92886 13.1356 8.47319C13.1356 8.01751 13.5082 7.64678 13.9661 7.64678C14.424 7.64678 14.7965 8.01751 14.7965 8.47319C14.7965 8.92886 14.424 9.29959 13.9661 9.29959Z" fill="#868889"/>
<path d="M17.8599 13.9494H9.90127C9.59682 13.0496 8.74155 12.3995 7.73597 12.3995C6.73039 12.3995 5.87512 13.0496 5.57068 13.9494H0.727065C0.325531 13.9494 0 14.2733 0 14.6729C0 15.0725 0.325531 15.3964 0.727065 15.3964H5.57068C5.87512 16.2963 6.73039 16.9464 7.73597 16.9464C8.74155 16.9464 9.59682 16.2963 9.90127 15.3964H17.86C18.2615 15.3964 18.587 15.0725 18.587 14.6729C18.587 14.2733 18.2615 13.9494 17.8599 13.9494ZM7.73597 15.4994C7.27807 15.4994 6.90552 15.1286 6.90552 14.673C6.90552 14.2173 7.27807 13.8466 7.73597 13.8466C8.19388 13.8466 8.56643 14.2172 8.56643 14.6729C8.56643 15.1286 8.19388 15.4994 7.73597 15.4994Z" fill="#868889"/>
</svg>
