<svg width="22" height="27" viewBox="0 0 22 27" fill="none" xmlns="http://www.w3.org/2000/svg">
<path d="M11 0C5.41704 0 0.875 4.54204 0.875 10.125C0.875 13.265 2.4997 16.9119 5.70401 20.9644C8.04868 23.9298 10.3596 25.9791 10.4568 26.0649C10.7671 26.3387 11.2328 26.3387 11.5431 26.0649C11.6404 25.9791 13.9513 23.9298 16.296 20.9644C19.5003 16.9119 21.125 13.265 21.125 10.125C21.125 4.54204 16.5829 0 11 0V0ZM11 24.3293C9.04895 22.47 2.51689 15.8184 2.51689 10.125C2.51689 5.44739 6.32239 1.64189 11 1.64189C15.6776 1.64189 19.4831 5.44739 19.4831 10.125C19.4831 15.8184 12.9509 22.4701 11 24.3293Z" fill="#868889"/>
<path d="M17.2809 9.63862L11.5343 4.71294C11.2269 4.44942 10.7732 4.44942 10.4658 4.71294L4.71918 9.63862C4.37495 9.93364 4.33508 10.452 4.63016 10.7962C4.92524 11.1404 5.44351 11.1803 5.78774 10.8852L6.48483 10.2877V14.3666C6.48483 14.82 6.85241 15.1876 7.30578 15.1876H14.6943C15.1477 15.1876 15.5152 14.82 15.5152 14.3666V10.2877L16.2124 10.8852C16.5581 11.1816 17.0762 11.1389 17.37 10.7962C17.665 10.452 17.6252 9.93369 17.2809 9.63862ZM13.8733 13.5457H8.12672V8.88032L11 6.41748L13.8733 8.88032V13.5457Z" fill="#868889"/>
</svg>
