<svg width="27" height="17" viewBox="0 0 27 17" fill="none" xmlns="http://www.w3.org/2000/svg">
<path d="M26.3144 7.92446C26.0779 7.60082 20.4408 0 13.2412 0C6.0417 0 0.40438 7.60082 0.168052 7.92415C-0.0560173 8.23119 -0.0560173 8.64762 0.168052 8.95465C0.40438 9.27829 6.0417 16.8791 13.2412 16.8791C20.4408 16.8791 26.0779 9.27824 26.3144 8.95491C26.5388 8.64793 26.5388 8.23118 26.3144 7.92446ZM13.2412 15.133C7.93801 15.133 3.34485 10.0882 1.98518 8.43896C3.34309 6.78829 7.92663 1.74611 13.2412 1.74611C18.5442 1.74611 23.1371 6.79005 24.4973 8.44015C23.1394 10.0908 18.5559 15.133 13.2412 15.133Z" fill="#868889"/>
<path d="M13.2412 3.8791C10.7266 3.8791 8.68073 5.92497 8.68073 8.43955C8.68073 10.9541 10.7266 13 13.2412 13C15.7558 13 17.8016 10.9541 17.8016 8.43955C17.8016 5.92497 15.7558 3.8791 13.2412 3.8791ZM13.2412 11.4798C11.5647 11.4798 10.2009 10.116 10.2009 8.43955C10.2009 6.76312 11.5647 5.39928 13.2412 5.39928C14.9176 5.39928 16.2814 6.76312 16.2814 8.43955C16.2814 10.116 14.9176 11.4798 13.2412 11.4798Z" fill="#868889"/>
</svg>
