<svg width="26" height="18" viewBox="0 0 26 18" fill="none" xmlns="http://www.w3.org/2000/svg">
<path d="M14.744 12.0829C15.4319 12.0829 15.9896 11.5252 15.9896 10.8372C15.9896 10.1493 15.4319 9.59158 14.744 9.59158C14.056 9.59158 13.4983 10.1493 13.4983 10.8372C13.4983 11.5252 14.056 12.0829 14.744 12.0829Z" fill="#868889"/>
<path d="M18.2317 12.0829C18.9197 12.0829 19.4774 11.5252 19.4774 10.8372C19.4774 10.1493 18.9197 9.59158 18.2317 9.59158C17.5438 9.59158 16.9861 10.1493 16.9861 10.8372C16.9861 11.5252 17.5438 12.0829 18.2317 12.0829Z" fill="#868889"/>
<path d="M11.256 12.0829C11.944 12.0829 12.5017 11.5252 12.5017 10.8372C12.5017 10.1493 11.944 9.59158 11.256 9.59158C10.5681 9.59158 10.0104 10.1493 10.0104 10.8372C10.0104 11.5252 10.5681 12.0829 11.256 12.0829Z" fill="#868889"/>
<path d="M7.76824 12.0829C8.4562 12.0829 9.0139 11.5252 9.0139 10.8372C9.0139 10.1493 8.4562 9.59158 7.76824 9.59158C7.08028 9.59158 6.52258 10.1493 6.52258 10.8372C6.52258 11.5252 7.08028 12.0829 7.76824 12.0829Z" fill="#868889"/>
<path d="M24.759 0H1.24091C0.69053 0 0.244385 0.446146 0.244385 0.996528V16.941C0.244385 17.4914 0.69053 17.9375 1.24091 17.9375H24.759C25.3093 17.9375 25.7555 17.4914 25.7555 16.941V0.996528C25.7555 0.446146 25.3093 0 24.759 0ZM23.7624 15.9444H2.23744V1.99306H23.7624V15.9444Z" fill="#868889"/>
<path d="M7.76826 6.85113H18.2318C18.7822 6.85113 19.2283 6.40498 19.2283 5.8546C19.2283 5.30422 18.7822 4.85807 18.2318 4.85807H7.76826C7.21787 4.85807 6.77173 5.30422 6.77173 5.8546C6.77173 6.40498 7.21787 6.85113 7.76826 6.85113Z" fill="#868889"/>
</svg>
